<mxfile host="Electron" modified="2024-08-22T03:32:38.725Z" agent="Mozilla/5.0 (Windows NT 10.0; Win64; x64) AppleWebKit/537.36 (KHTML, like Gecko) draw.io/22.0.0 Chrome/114.0.5735.289 Electron/25.8.3 Safari/537.36" etag="AvQc0ynGLoJaw3t8XkWk" version="22.0.0" type="device">
  <diagram name="Page-1" id="yaUPgdYQsDSBNOjuEzUY">
    <mxGraphModel dx="1292" dy="915" grid="1" gridSize="10" guides="1" tooltips="1" connect="1" arrows="1" fold="1" page="1" pageScale="1" pageWidth="823" pageHeight="831" math="0" shadow="0">
      <root>
        <mxCell id="0" />
        <mxCell id="1" parent="0" />
        <mxCell id="K7WIqVGLNUSztfkD0jfK-22" value="" style="rounded=0;whiteSpace=wrap;html=1;fillColor=#fff2cc;strokeColor=#d6b656;" vertex="1" parent="1">
          <mxGeometry x="955" y="180" width="325" height="190" as="geometry" />
        </mxCell>
        <mxCell id="K7WIqVGLNUSztfkD0jfK-20" value="" style="rounded=0;whiteSpace=wrap;html=1;fillColor=#d5e8d4;strokeColor=#82b366;" vertex="1" parent="1">
          <mxGeometry x="450" y="180" width="490" height="190" as="geometry" />
        </mxCell>
        <mxCell id="K7WIqVGLNUSztfkD0jfK-1" value="" style="rounded=0;whiteSpace=wrap;html=1;fillColor=#dae8fc;strokeColor=#6c8ebf;" vertex="1" parent="1">
          <mxGeometry x="80" y="80" width="330" height="340" as="geometry" />
        </mxCell>
        <mxCell id="K7WIqVGLNUSztfkD0jfK-8" style="edgeStyle=orthogonalEdgeStyle;rounded=0;orthogonalLoop=1;jettySize=auto;html=1;entryX=0.5;entryY=0;entryDx=0;entryDy=0;" edge="1" parent="1" source="K7WIqVGLNUSztfkD0jfK-2" target="K7WIqVGLNUSztfkD0jfK-3">
          <mxGeometry relative="1" as="geometry" />
        </mxCell>
        <mxCell id="K7WIqVGLNUSztfkD0jfK-2" value="Dataset Registration" style="rounded=0;whiteSpace=wrap;html=1;" vertex="1" parent="1">
          <mxGeometry x="100" y="150" width="120" height="60" as="geometry" />
        </mxCell>
        <mxCell id="K7WIqVGLNUSztfkD0jfK-9" style="edgeStyle=orthogonalEdgeStyle;rounded=0;orthogonalLoop=1;jettySize=auto;html=1;entryX=0.5;entryY=0;entryDx=0;entryDy=0;" edge="1" parent="1" source="K7WIqVGLNUSztfkD0jfK-3" target="K7WIqVGLNUSztfkD0jfK-4">
          <mxGeometry relative="1" as="geometry" />
        </mxCell>
        <mxCell id="K7WIqVGLNUSztfkD0jfK-3" value="Create Compute Cluster" style="rounded=0;whiteSpace=wrap;html=1;" vertex="1" parent="1">
          <mxGeometry x="240" y="210" width="120" height="60" as="geometry" />
        </mxCell>
        <mxCell id="K7WIqVGLNUSztfkD0jfK-10" style="edgeStyle=orthogonalEdgeStyle;rounded=0;orthogonalLoop=1;jettySize=auto;html=1;entryX=0.5;entryY=0;entryDx=0;entryDy=0;" edge="1" parent="1" source="K7WIqVGLNUSztfkD0jfK-4" target="K7WIqVGLNUSztfkD0jfK-5">
          <mxGeometry relative="1" as="geometry" />
        </mxCell>
        <mxCell id="K7WIqVGLNUSztfkD0jfK-4" value="Create Experiment" style="rounded=0;whiteSpace=wrap;html=1;" vertex="1" parent="1">
          <mxGeometry x="100" y="270" width="120" height="60" as="geometry" />
        </mxCell>
        <mxCell id="K7WIqVGLNUSztfkD0jfK-11" style="edgeStyle=orthogonalEdgeStyle;rounded=0;orthogonalLoop=1;jettySize=auto;html=1;entryX=0;entryY=0.5;entryDx=0;entryDy=0;" edge="1" parent="1" source="K7WIqVGLNUSztfkD0jfK-5" target="K7WIqVGLNUSztfkD0jfK-6">
          <mxGeometry relative="1" as="geometry">
            <Array as="points">
              <mxPoint x="400" y="360" />
              <mxPoint x="400" y="280" />
            </Array>
          </mxGeometry>
        </mxCell>
        <mxCell id="K7WIqVGLNUSztfkD0jfK-5" value="Run Experiment" style="rounded=0;whiteSpace=wrap;html=1;" vertex="1" parent="1">
          <mxGeometry x="240" y="330" width="120" height="60" as="geometry" />
        </mxCell>
        <mxCell id="K7WIqVGLNUSztfkD0jfK-13" style="edgeStyle=orthogonalEdgeStyle;rounded=0;orthogonalLoop=1;jettySize=auto;html=1;entryX=0;entryY=0.5;entryDx=0;entryDy=0;" edge="1" parent="1" source="K7WIqVGLNUSztfkD0jfK-6" target="K7WIqVGLNUSztfkD0jfK-12">
          <mxGeometry relative="1" as="geometry" />
        </mxCell>
        <mxCell id="K7WIqVGLNUSztfkD0jfK-6" value="Choose Best Model" style="rounded=0;whiteSpace=wrap;html=1;" vertex="1" parent="1">
          <mxGeometry x="460" y="250" width="120" height="60" as="geometry" />
        </mxCell>
        <mxCell id="K7WIqVGLNUSztfkD0jfK-7" value="AutoML Pipeline" style="text;html=1;strokeColor=none;fillColor=none;align=center;verticalAlign=middle;whiteSpace=wrap;rounded=0;" vertex="1" parent="1">
          <mxGeometry x="160" y="90" width="160" height="30" as="geometry" />
        </mxCell>
        <mxCell id="K7WIqVGLNUSztfkD0jfK-15" style="edgeStyle=orthogonalEdgeStyle;rounded=0;orthogonalLoop=1;jettySize=auto;html=1;entryX=0;entryY=0.5;entryDx=0;entryDy=0;" edge="1" parent="1" source="K7WIqVGLNUSztfkD0jfK-12" target="K7WIqVGLNUSztfkD0jfK-14">
          <mxGeometry relative="1" as="geometry" />
        </mxCell>
        <mxCell id="K7WIqVGLNUSztfkD0jfK-12" value="Create Endpoint" style="rounded=0;whiteSpace=wrap;html=1;" vertex="1" parent="1">
          <mxGeometry x="630" y="250" width="120" height="60" as="geometry" />
        </mxCell>
        <mxCell id="K7WIqVGLNUSztfkD0jfK-17" style="edgeStyle=orthogonalEdgeStyle;rounded=0;orthogonalLoop=1;jettySize=auto;html=1;" edge="1" parent="1" source="K7WIqVGLNUSztfkD0jfK-14" target="K7WIqVGLNUSztfkD0jfK-16">
          <mxGeometry relative="1" as="geometry" />
        </mxCell>
        <mxCell id="K7WIqVGLNUSztfkD0jfK-14" value="Enable application insights/ logs&amp;nbsp;" style="rounded=0;whiteSpace=wrap;html=1;" vertex="1" parent="1">
          <mxGeometry x="800" y="250" width="120" height="60" as="geometry" />
        </mxCell>
        <mxCell id="K7WIqVGLNUSztfkD0jfK-19" style="edgeStyle=orthogonalEdgeStyle;rounded=0;orthogonalLoop=1;jettySize=auto;html=1;entryX=0;entryY=0.5;entryDx=0;entryDy=0;" edge="1" parent="1" source="K7WIqVGLNUSztfkD0jfK-16" target="K7WIqVGLNUSztfkD0jfK-18">
          <mxGeometry relative="1" as="geometry" />
        </mxCell>
        <mxCell id="K7WIqVGLNUSztfkD0jfK-16" value="create swagger docs" style="rounded=0;whiteSpace=wrap;html=1;" vertex="1" parent="1">
          <mxGeometry x="970" y="250" width="120" height="60" as="geometry" />
        </mxCell>
        <mxCell id="K7WIqVGLNUSztfkD0jfK-18" value="consume model using rest apis" style="rounded=0;whiteSpace=wrap;html=1;" vertex="1" parent="1">
          <mxGeometry x="1140" y="250" width="120" height="60" as="geometry" />
        </mxCell>
        <mxCell id="K7WIqVGLNUSztfkD0jfK-21" value="Deployment &amp;amp; operations" style="text;html=1;strokeColor=none;fillColor=none;align=center;verticalAlign=middle;whiteSpace=wrap;rounded=0;" vertex="1" parent="1">
          <mxGeometry x="600" y="190" width="130" height="30" as="geometry" />
        </mxCell>
        <mxCell id="K7WIqVGLNUSztfkD0jfK-23" value="Integration &amp;amp; Testing" style="text;html=1;strokeColor=none;fillColor=none;align=center;verticalAlign=middle;whiteSpace=wrap;rounded=0;" vertex="1" parent="1">
          <mxGeometry x="1052.5" y="190" width="130" height="30" as="geometry" />
        </mxCell>
      </root>
    </mxGraphModel>
  </diagram>
</mxfile>
